<?xml version="1.0" encoding="utf-8"?>
<!-- Generator: Adobe Illustrator 16.0.0, SVG Export Plug-In . SVG Version: 6.00 Build 0)  -->
<!DOCTYPE svg PUBLIC "-//W3C//DTD SVG 1.1//EN" "http://www.w3.org/Graphics/SVG/1.1/DTD/svg11.dtd">
<svg version="1.1" id="Layer_1" xmlns="http://www.w3.org/2000/svg" xmlns:xlink="http://www.w3.org/1999/xlink" x="0px" y="0px"
	 width="196.984px" height="93.657px" viewBox="0 0 196.984 93.657" enable-background="new 0 0 196.984 93.657"
	 xml:space="preserve">
<g>
	<path fill="#FFFFFF" d="M0.5,88.566V1.555h29.355l11.66,68.672L53.762,1.555h28.887v87.012h-18.34l1.23-73.535L52.062,88.566
		H29.621L16.555,15.031l1.465,73.535H0.5z"/>
	<path fill="#FFFFFF" d="M94.777,88.566V27.102h16.582v6.738c1.562-2.734,3.359-4.717,5.391-5.947
		c2.031-1.23,4.55-1.846,7.559-1.846c3.71,0,6.337,0.948,7.881,2.842c1.542,1.895,2.314,5.147,2.314,9.756V52.18h-14.766v-6.445
		c0-2.187-0.264-3.671-0.791-4.453c-0.527-0.781-1.456-1.172-2.783-1.172c-1.368,0-2.314,0.372-2.842,1.113
		c-0.527,0.743-0.791,2.247-0.791,4.512v42.832H94.777z"/>
	<path fill="#FFFFFF" d="M193.567,65.188v2.871c0,3.008-0.139,5.381-0.41,7.119c-0.273,1.739-0.742,3.369-1.406,4.893l4.57,6.445
		l-6.973,6.387l-4.043-5.801c-1.406,0.938-3.428,1.591-6.064,1.963c-2.637,0.371-7.491,0.557-14.561,0.557
		c-9.297,0-15.547-1.621-18.75-4.863c-3.204-3.242-4.805-9.765-4.805-19.57V24.992c0-5.781,0.341-9.98,1.025-12.598
		c0.683-2.617,1.865-4.824,3.545-6.621c1.796-1.953,4.169-3.32,7.119-4.102c2.949-0.781,7.822-1.172,14.619-1.172
		c6.758,0,11.592,0.391,14.502,1.172c2.908,0.782,5.264,2.149,7.061,4.102c1.678,1.797,2.861,4.004,3.545,6.621
		c0.682,2.618,1.025,6.817,1.025,12.598V65.188z M173.762,55.93V22.18c0-2.421-0.402-4.043-1.201-4.863
		c-0.802-0.82-2.432-1.23-4.893-1.23c-2.5,0-4.151,0.41-4.951,1.23c-0.801,0.82-1.201,2.442-1.201,4.863v45.879
		c0,2.422,0.4,4.043,1.201,4.863c0.8,0.82,2.451,1.23,4.951,1.23c2.187,0,3.701-0.302,4.542-0.908
		c0.84-0.605,1.318-1.689,1.436-3.252l-9.375-12.598l5.918-6.738L173.762,55.93z"/>
</g>
</svg>
